<svg xmlns="http://www.w3.org/2000/svg" viewBox="0 0 24 24" fill="currentColor">
  <path d="M15.07 2H8.93C3.33 2 2 3.33 2 8.93V15.07C2 20.67 3.33 22 8.93 22H15.07C20.67 22 22 20.67 22 15.07V8.93C22 3.33 20.67 2 15.07 2ZM18.15 16.27H16.69C16.14 16.27 15.97 15.97 14.86 14.94C13.86 14.08 13.49 13.88 13.29 13.88C12.99 13.88 12.87 13.98 12.87 14.39V15.69C12.87 16.04 12.75 16.27 11.77 16.27C10.2 16.27 8.8 15.37 7.8 13.77C5.84 10.54 5.27 9.12 5.27 8.75C5.27 8.54 5.37 8.34 5.66 8.34H7.12C7.41 8.34 7.57 8.5 7.69 8.81C8.12 10.04 9.21 11.94 9.45 11.94C9.66 11.94 9.75 11.84 9.75 11.37V10.11C9.71 9.21 9.39 9.12 9.39 8.85C9.39 8.66 9.5 8.5 9.71 8.5H11.97C12.24 8.5 12.34 8.66 12.34 8.92V11.02C12.34 11.33 12.5 11.5 12.54 11.66C12.54 11.77 12.54 11.97 12.34 12.14C12.24 12.24 12.04 12.44 11.84 12.64C11.34 13.14 11.04 13.44 10.84 13.66C10.5 14.04 10.59 14.24 10.84 14.54C11.04 14.84 11.54 15.34 11.84 15.64C12.34 16.14 12.84 16.64 13.29 17.04C13.69 17.44 14.09 17.64 14.39 17.64C14.69 17.64 14.84 17.44 14.84 17.04V16.27H18.15Z"/>
</svg> 